HIERARCHY
ROOT Hips
{
	OFFSET 0.000000 0.000000 0.000000
	CHANNELS 6 Xposition Yposition Zposition Xrotation Yrotation Zrotation
	JOINT LeftUpLeg_virtual
	{
		OFFSET 0.000000 0.000000 0.000000
		CHANNELS 3 Xrotation Yrotation Zrotation
		JOINT LeftUpLeg
		{
			OFFSET 11.394100 -6.187798 -0.413800
			CHANNELS 3 Xrotation Yrotation Zrotation
			JOINT LeftLeg
			{
				OFFSET 0.430247 -32.302673 3.732800
				CHANNELS 3 Xrotation Yrotation Zrotation
				JOINT LeftFoot
				{
					OFFSET -0.430247 -48.264931 -6.423300
					CHANNELS 3 Xrotation Yrotation Zrotation
					JOINT LeftToeBase
					{
						OFFSET 4.230900 -16.068199 23.438400
						CHANNELS 3 Xrotation Yrotation Zrotation
						JOINT LeftToe_End
						{
							OFFSET 4.510700 0.695400 19.974600
							CHANNELS 3 Xrotation Yrotation Zrotation
							End Site
							{
								OFFSET 0 0 0
							}
						}
					}
				}
			}
		}
	}
	JOINT RightUpLeg_virtual
	{
		OFFSET 0.000000 0.000000 0.000000
		CHANNELS 3 Xrotation Yrotation Zrotation
		JOINT RightUpLeg
		{
			OFFSET -11.333700 -6.187798 -0.413800
			CHANNELS 3 Xrotation Yrotation Zrotation
			JOINT RightLeg
			{
				OFFSET -0.430392 -32.302628 3.733000
				CHANNELS 3 Xrotation Yrotation Zrotation
				JOINT RightFoot
				{
					OFFSET 0.430392 -48.264973 -6.423500
					CHANNELS 3 Xrotation Yrotation Zrotation
					JOINT RightToeBase
					{
						OFFSET -4.230900 -16.068199 23.438400
						CHANNELS 3 Xrotation Yrotation Zrotation
						JOINT RightToe_End
						{
							OFFSET -4.510700 0.695400 19.974600
							CHANNELS 3 Xrotation Yrotation Zrotation
							End Site
							{
								OFFSET 0 0 0
							}
						}
					}
				}
			}
		}
	}
	JOINT Spine_virtual
	{
		OFFSET 0.000000 0.000000 0.000000
		CHANNELS 3 Xrotation Yrotation Zrotation
		JOINT Spine
		{
			OFFSET -0.002400 12.777504 0.315300
			CHANNELS 3 Xrotation Yrotation Zrotation
			JOINT Spine1
			{
				OFFSET -0.002067 5.816869 0.032633
				CHANNELS 3 Xrotation Yrotation Zrotation
				JOINT Spine1_split
				{
					OFFSET -0.002067 5.816869 0.032633
					CHANNELS 3 Xrotation Yrotation Zrotation
					JOINT Spine2
					{
						OFFSET -0.002067 5.816869 0.032633
						CHANNELS 3 Xrotation Yrotation Zrotation
						JOINT Neck_virtual
						{
							OFFSET 0.000000 0.000000 0.000000
							CHANNELS 3 Xrotation Yrotation Zrotation
							JOINT Neck
							{
								OFFSET -0.003700 21.199493 -0.826900
								CHANNELS 3 Xrotation Yrotation Zrotation
								JOINT Head
								{
									OFFSET 0.000000 20.442200 4.834800
									CHANNELS 3 Xrotation Yrotation Zrotation
									JOINT HeadTop_End
									{
										OFFSET 0.000000 34.668396 4.968400
										CHANNELS 3 Xrotation Yrotation Zrotation
										End Site
										{
											OFFSET 0 0 0
										}
									}
								}
							}
						}
						JOINT LeftShoulder_virtual
						{
							OFFSET 0.000000 0.000000 0.000000
							CHANNELS 3 Xrotation Yrotation Zrotation
							JOINT LeftShoulder
							{
								OFFSET 3.288150 8.794197 -1.372250
								CHANNELS 3 Xrotation Yrotation Zrotation
								JOINT LeftShoulder_split
								{
									OFFSET 3.288150 8.794197 -1.372250
									CHANNELS 3 Xrotation Yrotation Zrotation
									JOINT LeftArm
									{
										OFFSET 11.953299 -2.279007 -0.146200
										CHANNELS 3 Xrotation Yrotation Zrotation
										JOINT LeftForeArm
										{
											OFFSET 18.448900 0.000000 0.000000
											CHANNELS 3 Xrotation Yrotation Zrotation
											JOINT LeftHand
											{
												OFFSET 29.527798 0.000000 0.000000
												CHANNELS 3 Xrotation Yrotation Zrotation
												End Site
												{
													OFFSET 0 0 0
												}
											}
										}
									}
								}
							}
						}
						JOINT RightShoulder_virtual
						{
							OFFSET 0.000000 0.000000 0.000000
							CHANNELS 3 Xrotation Yrotation Zrotation
							JOINT RightShoulder
							{
								OFFSET -3.249400 8.794197 -1.372250
								CHANNELS 3 Xrotation Yrotation Zrotation
								JOINT RightShoulder_split
								{
									OFFSET -3.249400 8.794197 -1.372250
									CHANNELS 3 Xrotation Yrotation Zrotation
									JOINT RightArm
									{
										OFFSET -11.953299 -2.279007 -0.146200
										CHANNELS 3 Xrotation Yrotation Zrotation
										JOINT RightForeArm
										{
											OFFSET -18.448900 0.000000 0.000000
											CHANNELS 3 Xrotation Yrotation Zrotation
											JOINT RightHand
											{
												OFFSET -29.527802 0.000000 0.000000
												CHANNELS 3 Xrotation Yrotation Zrotation
												End Site
												{
													OFFSET 0 0 0
												}
											}
										}
									}
								}
							}
						}
					}
				}
			}
		}
	}
}
MOTION
Frames: 8
Frame Time: 0.03333333
0.351418 58.229904 7.467205 0.000000 0.000000 0.000000 9.781322 1.001717 2.233223 -111.819035 -9.520380 8.372890 86.080519 8.015279 0.207712 17.840833 -8.017722 -7.409868 -0.103114 0.000005 0.000000 0.000000 0.000000 0.000000 9.781322 1.001717 2.233223 -113.905726 13.183010 -5.125210 86.803535 -6.803782 -1.897455 19.194553 1.264209 8.513439 -0.191630 0.000003 0.000001 0.000000 0.000000 0.000000 9.781322 1.001717 2.233223 6.359694 -1.846287 -1.485517 12.307231 -0.957519 -1.014769 0.000000 0.000000 0.000000 0.000000 0.000000 0.000000 12.300693 -1.002995 -1.017734 -3.622985 -0.575048 -0.242781 -52.425687 2.018626 -7.744214 0.000000 0.000000 0.000000 12.300693 -1.002995 -1.017734 2.110513 -13.413052 4.780011 0.000000 0.000000 0.000000 -60.316786 -31.265198 -11.184039 -179.999978 -66.659156 -179.999964 0.000000 0.000000 0.000000 12.300693 -1.002995 -1.017734 1.406739 10.858770 -3.428318 0.000000 0.000000 0.000000 -74.231575 34.456132 29.321872 -179.999991 62.903071 179.999991 0.000000 0.000000 0.000000 
0.310640 58.199478 7.229362 0.000000 0.000000 0.000000 10.031239 1.124880 2.047693 -112.116551 -9.577859 8.335481 85.717078 7.903052 0.207521 18.212423 -8.017075 -7.257797 -0.103114 0.000005 0.000000 0.000000 0.000000 0.000000 10.031239 1.124880 2.047693 -114.047043 13.094006 -5.090064 86.486423 -7.062903 -1.896014 19.445386 1.290848 8.527081 -0.191630 0.000002 0.000001 0.000000 0.000000 0.000000 10.031239 1.124880 2.047693 6.658233 -1.803620 -1.452306 12.424806 -1.025003 -1.058488 0.000000 0.000000 0.000000 0.000000 0.000000 0.000000 12.417976 -1.068097 -1.061768 -1.895612 -0.591972 -0.269630 -52.752082 2.205242 -7.750111 0.000000 0.000000 0.000000 12.417976 -1.068097 -1.061768 2.032581 -12.676389 5.127218 0.000000 0.000000 0.000000 -60.706407 -30.617108 -11.221790 -179.999964 -66.202927 -179.999964 0.000000 0.000000 0.000000 12.417976 -1.068097 -1.061768 1.410437 10.679839 -3.565131 0.000000 0.000000 0.000000 -74.164503 34.359086 28.526555 179.999978 62.873087 -179.999978 0.000000 0.000000 0.000000 
0.328828 58.095657 7.085709 0.000000 0.000000 0.000000 10.524266 1.318071 2.012171 -112.764668 -9.474577 8.151574 85.476573 7.919921 0.207602 18.564280 -8.019586 -7.061655 -0.103114 0.000004 0.000000 0.000000 0.000000 0.000000 10.524266 1.318071 2.012171 -114.604864 13.273739 -5.057191 86.329677 -7.272527 -1.897302 19.719692 1.332552 8.570555 -0.191630 0.000002 0.000001 0.000000 0.000000 0.000000 10.524266 1.318071 2.012171 7.086751 -1.734767 -1.440277 12.767376 -1.020629 -1.140128 0.000000 0.000000 0.000000 0.000000 0.000000 0.000000 12.760486 -1.062330 -1.143888 1.301021 -0.746534 -0.517728 -52.329785 1.916441 -7.951302 0.000000 0.000000 0.000000 12.760486 -1.062330 -1.143888 2.068308 -12.394305 6.151575 0.000000 0.000000 0.000000 -58.624470 -28.929884 -12.183165 -179.999923 -65.051965 -179.999937 0.000000 0.000000 0.000000 12.760486 -1.062330 -1.143888 1.461460 11.134546 -3.330571 0.000000 0.000000 0.000000 -71.860482 33.821656 27.199859 -179.999991 62.565523 179.999991 0.000000 0.000000 0.000000 
0.372068 57.998085 7.067661 0.000000 0.000000 0.000000 11.092693 1.523530 2.077300 -113.449217 -9.296711 7.931845 85.420456 8.012260 0.206620 18.703030 -8.024435 -7.023901 -0.103114 0.000005 0.000000 0.000000 0.000000 0.000000 11.092693 1.523530 2.077300 -115.287323 13.617772 -5.049967 86.370249 -7.369834 -1.899006 19.849406 1.366800 8.687882 -0.191630 0.000003 0.000001 0.000000 0.000000 0.000000 11.092693 1.523530 2.077300 7.559404 -1.641806 -1.451086 13.167885 -0.921942 -1.227743 0.000000 0.000000 0.000000 0.000000 0.000000 0.000000 13.161523 -0.962647 -1.229826 4.847734 -0.977131 -0.865297 -50.472352 1.193751 -8.236322 0.000000 0.000000 0.000000 13.161523 -0.962647 -1.229826 2.167039 -12.215280 7.794461 0.000000 0.000000 0.000000 -54.283243 -27.085351 -14.223982 -179.999991 -63.627570 180.000005 0.000000 0.000000 0.000000 13.161523 -0.962647 -1.229826 1.506035 11.775377 -2.798579 0.000000 0.000000 0.000000 -67.693616 33.040343 25.501039 -179.999991 62.236793 179.999978 0.000000 0.000000 0.000000 
0.384575 58.022697 7.117466 0.000000 0.000000 0.000000 11.531449 1.662679 2.087255 -113.815055 -9.201521 7.817081 85.369660 8.042047 0.205724 18.658122 -8.025276 -7.088476 -0.103114 0.000004 0.000000 0.000000 0.000000 0.000000 11.531449 1.662679 2.087255 -115.646113 13.820433 -5.058512 86.391504 -7.447192 -1.899600 19.795478 1.380077 8.820686 -0.191630 0.000002 0.000001 0.000000 0.000000 0.000000 11.531449 1.662679 2.087255 7.974225 -1.550862 -1.470818 13.423674 -0.778729 -1.275637 0.000000 0.000000 0.000000 0.000000 0.000000 0.000000 13.418321 -0.818347 -1.272996 7.357070 -1.163097 -1.106202 -47.701662 0.354556 -8.399678 0.000000 0.000000 0.000000 13.418321 -0.818347 -1.272996 2.239047 -11.926235 9.537962 0.000000 0.000000 0.000000 -49.655376 -26.049083 -16.523723 -179.999991 -62.601388 -179.999991 0.000000 0.000000 0.000000 13.418321 -0.818347 -1.272996 1.516753 12.145111 -2.309170 0.000000 0.000000 0.000000 -63.475837 32.392821 23.799944 -179.999991 62.123767 179.999991 0.000000 0.000000 0.000000 
0.362191 58.135124 7.162933 0.000000 0.000000 0.000000 11.765034 1.694854 1.967245 -113.891150 -9.270864 7.830193 85.230775 7.975444 0.206795 18.626745 -8.019498 -7.051962 -0.103114 0.000003 0.000000 0.000000 0.000000 0.000000 11.765034 1.694854 1.967245 -115.630458 13.724215 -5.033959 86.262981 -7.609006 -1.899450 19.701045 1.380496 8.870193 -0.191630 0.000003 0.000001 0.000000 0.000000 0.000000 11.765034 1.694854 1.967245 8.236465 -1.496188 -1.481369 13.345371 -0.676465 -1.256048 0.000000 0.000000 0.000000 0.000000 0.000000 0.000000 13.340831 -0.714974 -1.248167 8.090305 -1.226760 -1.132735 -45.439360 -0.233738 -8.333605 0.000000 0.000000 0.000000 13.340831 -0.714974 -1.248167 2.216667 -11.554275 10.616232 0.000000 0.000000 0.000000 -46.960795 -26.058350 -17.681931 -179.999978 -62.415758 -179.999991 0.000000 0.000000 0.000000 13.340831 -0.714974 -1.248167 1.518413 12.103814 -2.287489 0.000000 0.000000 0.000000 -61.275048 32.072369 22.757716 -179.999950 62.151907 179.999950 0.000000 0.000000 0.000000 
0.351392 58.172623 7.193985 0.000000 0.000000 0.000000 11.865259 1.639095 1.828648 -113.981084 -9.427343 7.879001 85.224355 7.914213 0.207800 18.624876 -8.014862 -7.004581 -0.103114 0.000005 0.000000 0.000000 0.000000 0.000000 11.865259 1.639095 1.828648 -115.615131 13.561195 -4.974203 86.194713 -7.711423 -1.899589 19.658662 1.383110 8.891290 -0.191630 0.000003 0.000001 0.000000 0.000000 0.000000 11.865259 1.639095 1.828648 8.288254 -1.496670 -1.476176 12.816533 -0.670413 -1.174162 0.000000 0.000000 0.000000 0.000000 0.000000 0.000000 12.812286 -0.707192 -1.162423 7.350107 -1.197290 -1.016205 -44.739471 -0.441946 -8.175060 0.000000 0.000000 0.000000 12.812286 -0.707192 -1.162423 2.125303 -11.358058 10.412162 0.000000 0.000000 0.000000 -46.776561 -26.808504 -16.718339 -179.999991 -62.968866 -179.999991 0.000000 0.000000 0.000000 12.812286 -0.707192 -1.162423 1.537320 11.819866 -2.920741 0.000000 0.000000 0.000000 -61.666124 31.849623 22.785274 179.999978 61.964822 -179.999978 0.000000 0.000000 0.000000 
0.390865 58.068573 7.245365 0.000000 0.000000 0.000000 11.977839 1.546154 1.823407 -114.277425 -9.535817 7.870986 85.483280 7.978809 0.207117 18.572415 -8.020355 -7.080817 -0.103114 0.000005 0.000000 0.000000 0.000000 0.000000 11.977839 1.546154 1.823407 -115.904868 13.577256 -4.900468 86.348775 -7.645686 -1.900101 19.668961 1.391263 8.942944 -0.191630 0.000003 0.000001 0.000000 0.000000 0.000000 11.977839 1.546154 1.823407 8.135426 -1.539408 -1.462490 11.845326 -0.747137 -1.058916 0.000000 0.000000 0.000000 0.000000 0.000000 0.000000 11.841117 -0.780253 -1.043560 5.985533 -1.164709 -0.904971 -45.349096 -0.445055 -8.213910 0.000000 0.000000 0.000000 11.841117 -0.780253 -1.043560 2.047188 -11.694173 8.828355 0.000000 0.000000 0.000000 -47.822724 -28.019767 -13.735358 -179.999991 -63.682642 -180.000005 0.000000 0.000000 0.000000 11.841117 -0.780253 -1.043560 1.571545 11.503137 -4.016883 0.000000 0.000000 0.000000 -63.354676 31.237754 23.675256 179.999991 61.218193 -179.999978 0.000000 0.000000 0.000000 
